<?xml version="1.0" encoding="UTF-8" standalone="no"?>
<svg xmlns:svg="http://www.w3.org/2000/svg" xmlns="http://www.w3.org/2000/svg" xmlns:xlink="http://www.w3.org/1999/xlink" width="225" height="172">
<path d="m 25.5,91 0,8.5 123,0 0,-8.5 -123,0 z" style="fill:#ffffff" />
<path d="m 25.5,161.5 0,-62 123,0 0,62 -32,0 0,-27 -58,0 0,27 -33,0 z" style="fill:#dd0707" />
<path d="m 25.010664,91 0,-22.406537 c -0.681486,-1.118149 -2.74052,-0.276357 -4.955945,1.794193 -4.600696,4.299838 -6.13623,4.113553 -11.5705086,-1.403687 L 3.5436465,63.967981 25.010664,42.5 146.47059,41.5 173.5,7.3900456 176.46735,17 c 0.74677,0 4.12492,-2.312187 7.50701,-5.138193 8.25813,-6.9003248 9.1628,-5.9696123 6.20698,6.385636 -1.21744,5.088906 -2.20629,9.546027 -2.19744,9.904713 l 29.23561,27.174643 -0.53652,4.000026 c -0.8007,5.969642 -3.38962,8.708736 -12.88063,13.627757 L 195.20747,77.409165 163.32744,68.71167 148.84035,91 25.010664,91 z" style="fill:#1e0fbf" />
<path d="m -170.22094,74.468409 -13.09508,0.447226 -3.68486,12.186149 -4.47194,-12.315963 -12.7284,0.261213 10.33127,-8.058909 -4.18172,-12.02471 10.85701,7.335282 10.14396,-7.692892 -3.62127,12.592363 10.45103,7.270241 z" transform="translate(237.59322,-3.6440678)" id="st" style="fill:#ffffff;fill-opacity:1;fill-rule:nonzero;stroke:none" />
<use transform="translate(37.898304,0)" x="0" y="0" width="225" height="172" xlink:href="#st"/>
<use transform="translate(75.796603,0)" x="0" y="0" width="225" height="172" xlink:href="#st"/>
</svg>
